<mxfile host="app.diagrams.net" modified="2021-09-28T19:00:00.301Z" agent="5.0 (Windows NT 10.0; Win64; x64) AppleWebKit/537.36 (KHTML, like Gecko) Chrome/94.0.4606.61 Safari/537.36" etag="yvIsw1d0MvxHh-TRb-iw" version="15.3.5" type="github">
  <diagram id="R2lEEEUBdFMjLlhIrx00" name="Page-1">
    <mxGraphModel dx="1422" dy="1562" grid="0" gridSize="10" guides="1" tooltips="1" connect="1" arrows="1" fold="1" page="0" pageScale="1" pageWidth="850" pageHeight="1100" math="0" shadow="0" extFonts="Permanent Marker^https://fonts.googleapis.com/css?family=Permanent+Marker">
      <root>
        <mxCell id="0" />
        <mxCell id="1" parent="0" />
        <mxCell id="uKYQwsBpo09rn7Zrfnwy-1" value="ProceduralEncounters" style="shape=table;startSize=30;container=1;collapsible=1;childLayout=tableLayout;fixedRows=1;rowLines=0;fontStyle=1;align=center;resizeLast=1;fillColor=#d5e8d4;strokeColor=#82b366;" vertex="1" parent="1">
          <mxGeometry x="499" y="-68" width="250" height="130" as="geometry" />
        </mxCell>
        <mxCell id="uKYQwsBpo09rn7Zrfnwy-2" value="" style="shape=partialRectangle;collapsible=0;dropTarget=0;pointerEvents=0;fillColor=none;points=[[0,0.5],[1,0.5]];portConstraint=eastwest;top=0;left=0;right=0;bottom=1;" vertex="1" parent="uKYQwsBpo09rn7Zrfnwy-1">
          <mxGeometry y="30" width="250" height="30" as="geometry" />
        </mxCell>
        <mxCell id="uKYQwsBpo09rn7Zrfnwy-3" value="PK" style="shape=partialRectangle;overflow=hidden;connectable=0;fillColor=none;top=0;left=0;bottom=0;right=0;fontStyle=1;" vertex="1" parent="uKYQwsBpo09rn7Zrfnwy-2">
          <mxGeometry width="50" height="30" as="geometry">
            <mxRectangle width="50" height="30" as="alternateBounds" />
          </mxGeometry>
        </mxCell>
        <mxCell id="uKYQwsBpo09rn7Zrfnwy-4" value="EncounterID CHAR(3)" style="shape=partialRectangle;overflow=hidden;connectable=0;fillColor=none;top=0;left=0;bottom=0;right=0;align=left;spacingLeft=6;fontStyle=5;" vertex="1" parent="uKYQwsBpo09rn7Zrfnwy-2">
          <mxGeometry x="50" width="200" height="30" as="geometry">
            <mxRectangle width="200" height="30" as="alternateBounds" />
          </mxGeometry>
        </mxCell>
        <mxCell id="uKYQwsBpo09rn7Zrfnwy-5" value="" style="shape=partialRectangle;collapsible=0;dropTarget=0;pointerEvents=0;fillColor=none;points=[[0,0.5],[1,0.5]];portConstraint=eastwest;top=0;left=0;right=0;bottom=0;" vertex="1" parent="uKYQwsBpo09rn7Zrfnwy-1">
          <mxGeometry y="60" width="250" height="30" as="geometry" />
        </mxCell>
        <mxCell id="uKYQwsBpo09rn7Zrfnwy-6" value="FK" style="shape=partialRectangle;overflow=hidden;connectable=0;fillColor=none;top=0;left=0;bottom=0;right=0;" vertex="1" parent="uKYQwsBpo09rn7Zrfnwy-5">
          <mxGeometry width="50" height="30" as="geometry">
            <mxRectangle width="50" height="30" as="alternateBounds" />
          </mxGeometry>
        </mxCell>
        <mxCell id="uKYQwsBpo09rn7Zrfnwy-7" value="EncounterTypeID CHAR(4)" style="shape=partialRectangle;overflow=hidden;connectable=0;fillColor=none;top=0;left=0;bottom=0;right=0;align=left;spacingLeft=6;" vertex="1" parent="uKYQwsBpo09rn7Zrfnwy-5">
          <mxGeometry x="50" width="200" height="30" as="geometry">
            <mxRectangle width="200" height="30" as="alternateBounds" />
          </mxGeometry>
        </mxCell>
        <mxCell id="uKYQwsBpo09rn7Zrfnwy-8" value="" style="shape=partialRectangle;collapsible=0;dropTarget=0;pointerEvents=0;fillColor=none;points=[[0,0.5],[1,0.5]];portConstraint=eastwest;top=0;left=0;right=0;bottom=0;" vertex="1" parent="uKYQwsBpo09rn7Zrfnwy-1">
          <mxGeometry y="90" width="250" height="30" as="geometry" />
        </mxCell>
        <mxCell id="uKYQwsBpo09rn7Zrfnwy-9" value="" style="shape=partialRectangle;overflow=hidden;connectable=0;fillColor=none;top=0;left=0;bottom=0;right=0;" vertex="1" parent="uKYQwsBpo09rn7Zrfnwy-8">
          <mxGeometry width="50" height="30" as="geometry">
            <mxRectangle width="50" height="30" as="alternateBounds" />
          </mxGeometry>
        </mxCell>
        <mxCell id="uKYQwsBpo09rn7Zrfnwy-10" value="Score INT" style="shape=partialRectangle;overflow=hidden;connectable=0;fillColor=none;top=0;left=0;bottom=0;right=0;align=left;spacingLeft=6;" vertex="1" parent="uKYQwsBpo09rn7Zrfnwy-8">
          <mxGeometry x="50" width="200" height="30" as="geometry">
            <mxRectangle width="200" height="30" as="alternateBounds" />
          </mxGeometry>
        </mxCell>
        <mxCell id="uKYQwsBpo09rn7Zrfnwy-11" value="EncounterTypes" style="shape=table;startSize=30;container=1;collapsible=1;childLayout=tableLayout;fixedRows=1;rowLines=0;fontStyle=1;align=center;resizeLast=1;fillColor=#d5e8d4;strokeColor=#82b366;" vertex="1" parent="1">
          <mxGeometry x="519" y="152" width="250" height="100" as="geometry" />
        </mxCell>
        <mxCell id="uKYQwsBpo09rn7Zrfnwy-12" value="" style="shape=partialRectangle;collapsible=0;dropTarget=0;pointerEvents=0;fillColor=none;points=[[0,0.5],[1,0.5]];portConstraint=eastwest;top=0;left=0;right=0;bottom=1;" vertex="1" parent="uKYQwsBpo09rn7Zrfnwy-11">
          <mxGeometry y="30" width="250" height="30" as="geometry" />
        </mxCell>
        <mxCell id="uKYQwsBpo09rn7Zrfnwy-13" value="PK,FK" style="shape=partialRectangle;overflow=hidden;connectable=0;fillColor=none;top=0;left=0;bottom=0;right=0;fontStyle=1;" vertex="1" parent="uKYQwsBpo09rn7Zrfnwy-12">
          <mxGeometry width="40" height="30" as="geometry">
            <mxRectangle width="40" height="30" as="alternateBounds" />
          </mxGeometry>
        </mxCell>
        <mxCell id="uKYQwsBpo09rn7Zrfnwy-14" value="EncounterTypeID" style="shape=partialRectangle;overflow=hidden;connectable=0;fillColor=none;top=0;left=0;bottom=0;right=0;align=left;spacingLeft=6;fontStyle=5;" vertex="1" parent="uKYQwsBpo09rn7Zrfnwy-12">
          <mxGeometry x="40" width="210" height="30" as="geometry">
            <mxRectangle width="210" height="30" as="alternateBounds" />
          </mxGeometry>
        </mxCell>
        <mxCell id="uKYQwsBpo09rn7Zrfnwy-15" value="" style="shape=partialRectangle;collapsible=0;dropTarget=0;pointerEvents=0;fillColor=none;points=[[0,0.5],[1,0.5]];portConstraint=eastwest;top=0;left=0;right=0;bottom=0;" vertex="1" parent="uKYQwsBpo09rn7Zrfnwy-11">
          <mxGeometry y="60" width="250" height="30" as="geometry" />
        </mxCell>
        <mxCell id="uKYQwsBpo09rn7Zrfnwy-16" value="" style="shape=partialRectangle;overflow=hidden;connectable=0;fillColor=none;top=0;left=0;bottom=0;right=0;" vertex="1" parent="uKYQwsBpo09rn7Zrfnwy-15">
          <mxGeometry width="40" height="30" as="geometry">
            <mxRectangle width="40" height="30" as="alternateBounds" />
          </mxGeometry>
        </mxCell>
        <mxCell id="uKYQwsBpo09rn7Zrfnwy-17" value="EncounterType VARCHAR(50)" style="shape=partialRectangle;overflow=hidden;connectable=0;fillColor=none;top=0;left=0;bottom=0;right=0;align=left;spacingLeft=6;" vertex="1" parent="uKYQwsBpo09rn7Zrfnwy-15">
          <mxGeometry x="40" width="210" height="30" as="geometry">
            <mxRectangle width="210" height="30" as="alternateBounds" />
          </mxGeometry>
        </mxCell>
        <mxCell id="uKYQwsBpo09rn7Zrfnwy-18" value="DischargeNotes" style="shape=table;startSize=30;container=1;collapsible=1;childLayout=tableLayout;fixedRows=1;rowLines=0;fontStyle=1;align=center;resizeLast=1;fillColor=#dae8fc;strokeColor=#6c8ebf;" vertex="1" parent="1">
          <mxGeometry x="169" y="-68" width="250" height="190" as="geometry" />
        </mxCell>
        <mxCell id="uKYQwsBpo09rn7Zrfnwy-19" value="" style="shape=partialRectangle;collapsible=0;dropTarget=0;pointerEvents=0;fillColor=none;points=[[0,0.5],[1,0.5]];portConstraint=eastwest;top=0;left=0;right=0;bottom=1;" vertex="1" parent="uKYQwsBpo09rn7Zrfnwy-18">
          <mxGeometry y="30" width="250" height="30" as="geometry" />
        </mxCell>
        <mxCell id="uKYQwsBpo09rn7Zrfnwy-20" value="PK" style="shape=partialRectangle;overflow=hidden;connectable=0;fillColor=none;top=0;left=0;bottom=0;right=0;fontStyle=1;" vertex="1" parent="uKYQwsBpo09rn7Zrfnwy-19">
          <mxGeometry width="30" height="30" as="geometry">
            <mxRectangle width="30" height="30" as="alternateBounds" />
          </mxGeometry>
        </mxCell>
        <mxCell id="uKYQwsBpo09rn7Zrfnwy-21" value="DischargeID     CHAR(6)" style="shape=partialRectangle;overflow=hidden;connectable=0;fillColor=none;top=0;left=0;bottom=0;right=0;align=left;spacingLeft=6;fontStyle=1;" vertex="1" parent="uKYQwsBpo09rn7Zrfnwy-19">
          <mxGeometry x="30" width="220" height="30" as="geometry">
            <mxRectangle width="220" height="30" as="alternateBounds" />
          </mxGeometry>
        </mxCell>
        <mxCell id="uKYQwsBpo09rn7Zrfnwy-22" value="" style="shape=partialRectangle;collapsible=0;dropTarget=0;pointerEvents=0;fillColor=none;points=[[0,0.5],[1,0.5]];portConstraint=eastwest;top=0;left=0;right=0;bottom=0;" vertex="1" parent="uKYQwsBpo09rn7Zrfnwy-18">
          <mxGeometry y="60" width="250" height="30" as="geometry" />
        </mxCell>
        <mxCell id="uKYQwsBpo09rn7Zrfnwy-23" value="" style="shape=partialRectangle;overflow=hidden;connectable=0;fillColor=none;top=0;left=0;bottom=0;right=0;" vertex="1" parent="uKYQwsBpo09rn7Zrfnwy-22">
          <mxGeometry width="30" height="30" as="geometry">
            <mxRectangle width="30" height="30" as="alternateBounds" />
          </mxGeometry>
        </mxCell>
        <mxCell id="uKYQwsBpo09rn7Zrfnwy-24" value="DischargeTypeID CHAR(2)" style="shape=partialRectangle;overflow=hidden;connectable=0;fillColor=none;top=0;left=0;bottom=0;right=0;align=left;spacingLeft=6;" vertex="1" parent="uKYQwsBpo09rn7Zrfnwy-22">
          <mxGeometry x="30" width="220" height="30" as="geometry">
            <mxRectangle width="220" height="30" as="alternateBounds" />
          </mxGeometry>
        </mxCell>
        <mxCell id="uKYQwsBpo09rn7Zrfnwy-25" value="" style="shape=partialRectangle;collapsible=0;dropTarget=0;pointerEvents=0;fillColor=none;points=[[0,0.5],[1,0.5]];portConstraint=eastwest;top=0;left=0;right=0;bottom=0;" vertex="1" parent="uKYQwsBpo09rn7Zrfnwy-18">
          <mxGeometry y="90" width="250" height="30" as="geometry" />
        </mxCell>
        <mxCell id="uKYQwsBpo09rn7Zrfnwy-26" value="" style="shape=partialRectangle;overflow=hidden;connectable=0;fillColor=none;top=0;left=0;bottom=0;right=0;" vertex="1" parent="uKYQwsBpo09rn7Zrfnwy-25">
          <mxGeometry width="30" height="30" as="geometry">
            <mxRectangle width="30" height="30" as="alternateBounds" />
          </mxGeometry>
        </mxCell>
        <mxCell id="uKYQwsBpo09rn7Zrfnwy-27" value="Note    VARCHAR(250)" style="shape=partialRectangle;overflow=hidden;connectable=0;fillColor=none;top=0;left=0;bottom=0;right=0;align=left;spacingLeft=6;" vertex="1" parent="uKYQwsBpo09rn7Zrfnwy-25">
          <mxGeometry x="30" width="220" height="30" as="geometry">
            <mxRectangle width="220" height="30" as="alternateBounds" />
          </mxGeometry>
        </mxCell>
        <mxCell id="uKYQwsBpo09rn7Zrfnwy-28" value="" style="shape=partialRectangle;collapsible=0;dropTarget=0;pointerEvents=0;fillColor=none;points=[[0,0.5],[1,0.5]];portConstraint=eastwest;top=0;left=0;right=0;bottom=0;" vertex="1" parent="uKYQwsBpo09rn7Zrfnwy-18">
          <mxGeometry y="120" width="250" height="30" as="geometry" />
        </mxCell>
        <mxCell id="uKYQwsBpo09rn7Zrfnwy-29" value="" style="shape=partialRectangle;overflow=hidden;connectable=0;fillColor=none;top=0;left=0;bottom=0;right=0;" vertex="1" parent="uKYQwsBpo09rn7Zrfnwy-28">
          <mxGeometry width="30" height="30" as="geometry">
            <mxRectangle width="30" height="30" as="alternateBounds" />
          </mxGeometry>
        </mxCell>
        <mxCell id="uKYQwsBpo09rn7Zrfnwy-30" value="Initials     CHAR(2)" style="shape=partialRectangle;overflow=hidden;connectable=0;fillColor=none;top=0;left=0;bottom=0;right=0;align=left;spacingLeft=6;" vertex="1" parent="uKYQwsBpo09rn7Zrfnwy-28">
          <mxGeometry x="30" width="220" height="30" as="geometry">
            <mxRectangle width="220" height="30" as="alternateBounds" />
          </mxGeometry>
        </mxCell>
        <mxCell id="uKYQwsBpo09rn7Zrfnwy-31" value="" style="shape=partialRectangle;collapsible=0;dropTarget=0;pointerEvents=0;fillColor=none;points=[[0,0.5],[1,0.5]];portConstraint=eastwest;top=0;left=0;right=0;bottom=0;" vertex="1" parent="uKYQwsBpo09rn7Zrfnwy-18">
          <mxGeometry y="150" width="250" height="30" as="geometry" />
        </mxCell>
        <mxCell id="uKYQwsBpo09rn7Zrfnwy-32" value="" style="shape=partialRectangle;overflow=hidden;connectable=0;fillColor=none;top=0;left=0;bottom=0;right=0;" vertex="1" parent="uKYQwsBpo09rn7Zrfnwy-31">
          <mxGeometry width="30" height="30" as="geometry">
            <mxRectangle width="30" height="30" as="alternateBounds" />
          </mxGeometry>
        </mxCell>
        <mxCell id="uKYQwsBpo09rn7Zrfnwy-33" value="NoteDate     DATE" style="shape=partialRectangle;overflow=hidden;connectable=0;fillColor=none;top=0;left=0;bottom=0;right=0;align=left;spacingLeft=6;fontStyle=0" vertex="1" parent="uKYQwsBpo09rn7Zrfnwy-31">
          <mxGeometry x="30" width="220" height="30" as="geometry">
            <mxRectangle width="220" height="30" as="alternateBounds" />
          </mxGeometry>
        </mxCell>
        <mxCell id="uKYQwsBpo09rn7Zrfnwy-34" style="edgeStyle=orthogonalEdgeStyle;rounded=0;orthogonalLoop=1;jettySize=auto;html=1;exitX=0;exitY=0.5;exitDx=0;exitDy=0;entryX=0;entryY=0.5;entryDx=0;entryDy=0;" edge="1" parent="1" source="uKYQwsBpo09rn7Zrfnwy-22" target="uKYQwsBpo09rn7Zrfnwy-36">
          <mxGeometry relative="1" as="geometry">
            <mxPoint x="159" y="182" as="targetPoint" />
            <Array as="points">
              <mxPoint x="149" y="7" />
              <mxPoint x="149" y="197" />
            </Array>
          </mxGeometry>
        </mxCell>
        <mxCell id="uKYQwsBpo09rn7Zrfnwy-35" value="DischargeType" style="shape=table;startSize=30;container=1;collapsible=1;childLayout=tableLayout;fixedRows=1;rowLines=0;fontStyle=1;align=center;resizeLast=1;fillColor=#dae8fc;strokeColor=#6c8ebf;" vertex="1" parent="1">
          <mxGeometry x="169" y="152" width="250" height="100" as="geometry" />
        </mxCell>
        <mxCell id="uKYQwsBpo09rn7Zrfnwy-36" value="" style="shape=partialRectangle;collapsible=0;dropTarget=0;pointerEvents=0;fillColor=none;points=[[0,0.5],[1,0.5]];portConstraint=eastwest;top=0;left=0;right=0;bottom=1;" vertex="1" parent="uKYQwsBpo09rn7Zrfnwy-35">
          <mxGeometry y="30" width="250" height="30" as="geometry" />
        </mxCell>
        <mxCell id="uKYQwsBpo09rn7Zrfnwy-37" value="PK,FK" style="shape=partialRectangle;overflow=hidden;connectable=0;fillColor=none;top=0;left=0;bottom=0;right=0;fontStyle=1;" vertex="1" parent="uKYQwsBpo09rn7Zrfnwy-36">
          <mxGeometry width="40" height="30" as="geometry">
            <mxRectangle width="40" height="30" as="alternateBounds" />
          </mxGeometry>
        </mxCell>
        <mxCell id="uKYQwsBpo09rn7Zrfnwy-38" value="DischargeTypeID CHAR(2)" style="shape=partialRectangle;overflow=hidden;connectable=0;fillColor=none;top=0;left=0;bottom=0;right=0;align=left;spacingLeft=6;fontStyle=1;" vertex="1" parent="uKYQwsBpo09rn7Zrfnwy-36">
          <mxGeometry x="40" width="210" height="30" as="geometry">
            <mxRectangle width="210" height="30" as="alternateBounds" />
          </mxGeometry>
        </mxCell>
        <mxCell id="uKYQwsBpo09rn7Zrfnwy-39" value="" style="shape=partialRectangle;collapsible=0;dropTarget=0;pointerEvents=0;fillColor=none;points=[[0,0.5],[1,0.5]];portConstraint=eastwest;top=0;left=0;right=0;bottom=0;" vertex="1" parent="uKYQwsBpo09rn7Zrfnwy-35">
          <mxGeometry y="60" width="250" height="30" as="geometry" />
        </mxCell>
        <mxCell id="uKYQwsBpo09rn7Zrfnwy-40" value="" style="shape=partialRectangle;overflow=hidden;connectable=0;fillColor=none;top=0;left=0;bottom=0;right=0;" vertex="1" parent="uKYQwsBpo09rn7Zrfnwy-39">
          <mxGeometry width="40" height="30" as="geometry">
            <mxRectangle width="40" height="30" as="alternateBounds" />
          </mxGeometry>
        </mxCell>
        <mxCell id="uKYQwsBpo09rn7Zrfnwy-41" value="DischargeType     VARCHAR(50)" style="shape=partialRectangle;overflow=hidden;connectable=0;fillColor=none;top=0;left=0;bottom=0;right=0;align=left;spacingLeft=6;" vertex="1" parent="uKYQwsBpo09rn7Zrfnwy-39">
          <mxGeometry x="40" width="210" height="30" as="geometry">
            <mxRectangle width="210" height="30" as="alternateBounds" />
          </mxGeometry>
        </mxCell>
        <mxCell id="uKYQwsBpo09rn7Zrfnwy-42" style="edgeStyle=orthogonalEdgeStyle;rounded=0;orthogonalLoop=1;jettySize=auto;html=1;exitX=1;exitY=0.5;exitDx=0;exitDy=0;entryX=1;entryY=0.5;entryDx=0;entryDy=0;" edge="1" parent="1" source="uKYQwsBpo09rn7Zrfnwy-2" target="uKYQwsBpo09rn7Zrfnwy-12">
          <mxGeometry relative="1" as="geometry" />
        </mxCell>
        <mxCell id="uKYQwsBpo09rn7Zrfnwy-43" value="PreventiveMedicineEncounters" style="shape=table;startSize=30;container=1;collapsible=1;childLayout=tableLayout;fixedRows=1;rowLines=0;fontStyle=1;align=center;resizeLast=1;hachureGap=4;pointerEvents=0;fillColor=#ffe6cc;strokeColor=#d79b00;" vertex="1" parent="1">
          <mxGeometry x="867" y="120" width="249" height="194.75" as="geometry" />
        </mxCell>
        <mxCell id="uKYQwsBpo09rn7Zrfnwy-44" value="" style="shape=partialRectangle;collapsible=0;dropTarget=0;pointerEvents=0;fillColor=none;top=0;left=0;bottom=1;right=0;points=[[0,0.5],[1,0.5]];portConstraint=eastwest;" vertex="1" parent="uKYQwsBpo09rn7Zrfnwy-43">
          <mxGeometry y="30" width="249" height="35" as="geometry" />
        </mxCell>
        <mxCell id="uKYQwsBpo09rn7Zrfnwy-45" value="PK" style="shape=partialRectangle;connectable=0;fillColor=none;top=0;left=0;bottom=0;right=0;fontStyle=1;overflow=hidden;" vertex="1" parent="uKYQwsBpo09rn7Zrfnwy-44">
          <mxGeometry width="30" height="35" as="geometry">
            <mxRectangle width="30" height="35" as="alternateBounds" />
          </mxGeometry>
        </mxCell>
        <mxCell id="uKYQwsBpo09rn7Zrfnwy-46" value="PrevEncounterID CHAR(5)" style="shape=partialRectangle;connectable=0;fillColor=none;top=0;left=0;bottom=0;right=0;align=left;spacingLeft=6;fontStyle=5;overflow=hidden;" vertex="1" parent="uKYQwsBpo09rn7Zrfnwy-44">
          <mxGeometry x="30" width="219" height="35" as="geometry">
            <mxRectangle width="219" height="35" as="alternateBounds" />
          </mxGeometry>
        </mxCell>
        <mxCell id="uKYQwsBpo09rn7Zrfnwy-47" value="" style="shape=partialRectangle;collapsible=0;dropTarget=0;pointerEvents=0;fillColor=none;top=0;left=0;bottom=0;right=0;points=[[0,0.5],[1,0.5]];portConstraint=eastwest;" vertex="1" parent="uKYQwsBpo09rn7Zrfnwy-43">
          <mxGeometry y="65" width="249" height="30" as="geometry" />
        </mxCell>
        <mxCell id="uKYQwsBpo09rn7Zrfnwy-48" value="FK" style="shape=partialRectangle;connectable=0;fillColor=none;top=0;left=0;bottom=0;right=0;editable=1;overflow=hidden;" vertex="1" parent="uKYQwsBpo09rn7Zrfnwy-47">
          <mxGeometry width="30" height="30" as="geometry">
            <mxRectangle width="30" height="30" as="alternateBounds" />
          </mxGeometry>
        </mxCell>
        <mxCell id="uKYQwsBpo09rn7Zrfnwy-49" value="PrevEncounterTypeID CHAR(7)" style="shape=partialRectangle;connectable=0;fillColor=none;top=0;left=0;bottom=0;right=0;align=left;spacingLeft=6;overflow=hidden;" vertex="1" parent="uKYQwsBpo09rn7Zrfnwy-47">
          <mxGeometry x="30" width="219" height="30" as="geometry">
            <mxRectangle width="219" height="30" as="alternateBounds" />
          </mxGeometry>
        </mxCell>
        <mxCell id="uKYQwsBpo09rn7Zrfnwy-50" value="" style="shape=partialRectangle;collapsible=0;dropTarget=0;pointerEvents=0;fillColor=none;top=0;left=0;bottom=0;right=0;points=[[0,0.5],[1,0.5]];portConstraint=eastwest;" vertex="1" parent="uKYQwsBpo09rn7Zrfnwy-43">
          <mxGeometry y="95" width="249" height="30" as="geometry" />
        </mxCell>
        <mxCell id="uKYQwsBpo09rn7Zrfnwy-51" value="FK" style="shape=partialRectangle;connectable=0;fillColor=none;top=0;left=0;bottom=0;right=0;editable=1;overflow=hidden;" vertex="1" parent="uKYQwsBpo09rn7Zrfnwy-50">
          <mxGeometry width="30" height="30" as="geometry">
            <mxRectangle width="30" height="30" as="alternateBounds" />
          </mxGeometry>
        </mxCell>
        <mxCell id="uKYQwsBpo09rn7Zrfnwy-52" value="AgeGroupID INT" style="shape=partialRectangle;connectable=0;fillColor=none;top=0;left=0;bottom=0;right=0;align=left;spacingLeft=6;overflow=hidden;" vertex="1" parent="uKYQwsBpo09rn7Zrfnwy-50">
          <mxGeometry x="30" width="219" height="30" as="geometry">
            <mxRectangle width="219" height="30" as="alternateBounds" />
          </mxGeometry>
        </mxCell>
        <mxCell id="uKYQwsBpo09rn7Zrfnwy-53" value="" style="shape=partialRectangle;collapsible=0;dropTarget=0;pointerEvents=0;fillColor=none;top=0;left=0;bottom=0;right=0;points=[[0,0.5],[1,0.5]];portConstraint=eastwest;" vertex="1" parent="uKYQwsBpo09rn7Zrfnwy-43">
          <mxGeometry y="125" width="249" height="30" as="geometry" />
        </mxCell>
        <mxCell id="uKYQwsBpo09rn7Zrfnwy-54" value="" style="shape=partialRectangle;connectable=0;fillColor=none;top=0;left=0;bottom=0;right=0;editable=1;overflow=hidden;" vertex="1" parent="uKYQwsBpo09rn7Zrfnwy-53">
          <mxGeometry width="30" height="30" as="geometry">
            <mxRectangle width="30" height="30" as="alternateBounds" />
          </mxGeometry>
        </mxCell>
        <mxCell id="uKYQwsBpo09rn7Zrfnwy-55" value="Initials CHAR(2)" style="shape=partialRectangle;connectable=0;fillColor=none;top=0;left=0;bottom=0;right=0;align=left;spacingLeft=6;overflow=hidden;" vertex="1" parent="uKYQwsBpo09rn7Zrfnwy-53">
          <mxGeometry x="30" width="219" height="30" as="geometry">
            <mxRectangle width="219" height="30" as="alternateBounds" />
          </mxGeometry>
        </mxCell>
        <mxCell id="uKYQwsBpo09rn7Zrfnwy-56" value="" style="shape=partialRectangle;collapsible=0;dropTarget=0;pointerEvents=0;fillColor=none;top=0;left=0;bottom=0;right=0;points=[[0,0.5],[1,0.5]];portConstraint=eastwest;" vertex="1" parent="uKYQwsBpo09rn7Zrfnwy-43">
          <mxGeometry y="155" width="249" height="30" as="geometry" />
        </mxCell>
        <mxCell id="uKYQwsBpo09rn7Zrfnwy-57" value="" style="shape=partialRectangle;connectable=0;fillColor=none;top=0;left=0;bottom=0;right=0;editable=1;overflow=hidden;" vertex="1" parent="uKYQwsBpo09rn7Zrfnwy-56">
          <mxGeometry width="30" height="30" as="geometry">
            <mxRectangle width="30" height="30" as="alternateBounds" />
          </mxGeometry>
        </mxCell>
        <mxCell id="uKYQwsBpo09rn7Zrfnwy-58" value="NoteDate DATE" style="shape=partialRectangle;connectable=0;fillColor=none;top=0;left=0;bottom=0;right=0;align=left;spacingLeft=6;overflow=hidden;" vertex="1" parent="uKYQwsBpo09rn7Zrfnwy-56">
          <mxGeometry x="30" width="219" height="30" as="geometry">
            <mxRectangle width="219" height="30" as="alternateBounds" />
          </mxGeometry>
        </mxCell>
        <mxCell id="uKYQwsBpo09rn7Zrfnwy-59" value="AgeGroup" style="shape=table;startSize=30;container=1;collapsible=1;childLayout=tableLayout;fixedRows=1;rowLines=0;fontStyle=1;align=center;resizeLast=1;hachureGap=4;pointerEvents=0;fillColor=#ffe6cc;strokeColor=#d79b00;" vertex="1" parent="1">
          <mxGeometry x="863" y="340" width="249" height="104.75" as="geometry" />
        </mxCell>
        <mxCell id="uKYQwsBpo09rn7Zrfnwy-60" value="" style="shape=partialRectangle;collapsible=0;dropTarget=0;pointerEvents=0;fillColor=none;top=0;left=0;bottom=1;right=0;points=[[0,0.5],[1,0.5]];portConstraint=eastwest;" vertex="1" parent="uKYQwsBpo09rn7Zrfnwy-59">
          <mxGeometry y="30" width="249" height="35" as="geometry" />
        </mxCell>
        <mxCell id="uKYQwsBpo09rn7Zrfnwy-61" value="PK,FK" style="shape=partialRectangle;connectable=0;fillColor=none;top=0;left=0;bottom=0;right=0;fontStyle=1;overflow=hidden;" vertex="1" parent="uKYQwsBpo09rn7Zrfnwy-60">
          <mxGeometry width="43.75" height="35" as="geometry">
            <mxRectangle width="43.75" height="35" as="alternateBounds" />
          </mxGeometry>
        </mxCell>
        <mxCell id="uKYQwsBpo09rn7Zrfnwy-62" value="AgeGroupID INT" style="shape=partialRectangle;connectable=0;fillColor=none;top=0;left=0;bottom=0;right=0;align=left;spacingLeft=6;fontStyle=5;overflow=hidden;" vertex="1" parent="uKYQwsBpo09rn7Zrfnwy-60">
          <mxGeometry x="43.75" width="205.25" height="35" as="geometry">
            <mxRectangle width="205.25" height="35" as="alternateBounds" />
          </mxGeometry>
        </mxCell>
        <mxCell id="uKYQwsBpo09rn7Zrfnwy-63" value="" style="shape=partialRectangle;collapsible=0;dropTarget=0;pointerEvents=0;fillColor=none;top=0;left=0;bottom=0;right=0;points=[[0,0.5],[1,0.5]];portConstraint=eastwest;" vertex="1" parent="uKYQwsBpo09rn7Zrfnwy-59">
          <mxGeometry y="65" width="249" height="30" as="geometry" />
        </mxCell>
        <mxCell id="uKYQwsBpo09rn7Zrfnwy-64" value="" style="shape=partialRectangle;connectable=0;fillColor=none;top=0;left=0;bottom=0;right=0;editable=1;overflow=hidden;" vertex="1" parent="uKYQwsBpo09rn7Zrfnwy-63">
          <mxGeometry width="43.75" height="30" as="geometry">
            <mxRectangle width="43.75" height="30" as="alternateBounds" />
          </mxGeometry>
        </mxCell>
        <mxCell id="uKYQwsBpo09rn7Zrfnwy-65" value="AgeGroup CHAR(10)" style="shape=partialRectangle;connectable=0;fillColor=none;top=0;left=0;bottom=0;right=0;align=left;spacingLeft=6;overflow=hidden;" vertex="1" parent="uKYQwsBpo09rn7Zrfnwy-63">
          <mxGeometry x="43.75" width="205.25" height="30" as="geometry">
            <mxRectangle width="205.25" height="30" as="alternateBounds" />
          </mxGeometry>
        </mxCell>
        <mxCell id="uKYQwsBpo09rn7Zrfnwy-66" style="edgeStyle=orthogonalEdgeStyle;rounded=0;orthogonalLoop=1;jettySize=auto;html=1;exitX=0;exitY=0.5;exitDx=0;exitDy=0;entryX=0;entryY=0.5;entryDx=0;entryDy=0;endArrow=classic;startSize=6;endSize=6;sourcePerimeterSpacing=8;targetPerimeterSpacing=8;endFill=1;startArrow=none;startFill=0;" edge="1" parent="1" source="uKYQwsBpo09rn7Zrfnwy-50" target="uKYQwsBpo09rn7Zrfnwy-60">
          <mxGeometry relative="1" as="geometry" />
        </mxCell>
        <mxCell id="uKYQwsBpo09rn7Zrfnwy-67" value="PrevEncounterType" style="shape=table;startSize=30;container=1;collapsible=1;childLayout=tableLayout;fixedRows=1;rowLines=0;fontStyle=1;align=center;resizeLast=1;hachureGap=4;pointerEvents=0;fillColor=#ffe6cc;strokeColor=#d79b00;" vertex="1" parent="1">
          <mxGeometry x="863" y="-68" width="249" height="104.75" as="geometry" />
        </mxCell>
        <mxCell id="uKYQwsBpo09rn7Zrfnwy-68" value="" style="shape=partialRectangle;collapsible=0;dropTarget=0;pointerEvents=0;fillColor=none;top=0;left=0;bottom=1;right=0;points=[[0,0.5],[1,0.5]];portConstraint=eastwest;" vertex="1" parent="uKYQwsBpo09rn7Zrfnwy-67">
          <mxGeometry y="30" width="249" height="35" as="geometry" />
        </mxCell>
        <mxCell id="uKYQwsBpo09rn7Zrfnwy-69" value="PK,FK" style="shape=partialRectangle;connectable=0;fillColor=none;top=0;left=0;bottom=0;right=0;fontStyle=1;overflow=hidden;" vertex="1" parent="uKYQwsBpo09rn7Zrfnwy-68">
          <mxGeometry width="43.75" height="35" as="geometry">
            <mxRectangle width="43.75" height="35" as="alternateBounds" />
          </mxGeometry>
        </mxCell>
        <mxCell id="uKYQwsBpo09rn7Zrfnwy-70" value="PrevEncounterTypeID" style="shape=partialRectangle;connectable=0;fillColor=none;top=0;left=0;bottom=0;right=0;align=left;spacingLeft=6;fontStyle=5;overflow=hidden;" vertex="1" parent="uKYQwsBpo09rn7Zrfnwy-68">
          <mxGeometry x="43.75" width="205.25" height="35" as="geometry">
            <mxRectangle width="205.25" height="35" as="alternateBounds" />
          </mxGeometry>
        </mxCell>
        <mxCell id="uKYQwsBpo09rn7Zrfnwy-71" value="" style="shape=partialRectangle;collapsible=0;dropTarget=0;pointerEvents=0;fillColor=none;top=0;left=0;bottom=0;right=0;points=[[0,0.5],[1,0.5]];portConstraint=eastwest;" vertex="1" parent="uKYQwsBpo09rn7Zrfnwy-67">
          <mxGeometry y="65" width="249" height="30" as="geometry" />
        </mxCell>
        <mxCell id="uKYQwsBpo09rn7Zrfnwy-72" value="" style="shape=partialRectangle;connectable=0;fillColor=none;top=0;left=0;bottom=0;right=0;editable=1;overflow=hidden;" vertex="1" parent="uKYQwsBpo09rn7Zrfnwy-71">
          <mxGeometry width="43.75" height="30" as="geometry">
            <mxRectangle width="43.75" height="30" as="alternateBounds" />
          </mxGeometry>
        </mxCell>
        <mxCell id="uKYQwsBpo09rn7Zrfnwy-73" value="PrevEncounterType CHAR(50)" style="shape=partialRectangle;connectable=0;fillColor=none;top=0;left=0;bottom=0;right=0;align=left;spacingLeft=6;overflow=hidden;" vertex="1" parent="uKYQwsBpo09rn7Zrfnwy-71">
          <mxGeometry x="43.75" width="205.25" height="30" as="geometry">
            <mxRectangle width="205.25" height="30" as="alternateBounds" />
          </mxGeometry>
        </mxCell>
        <mxCell id="uKYQwsBpo09rn7Zrfnwy-74" style="edgeStyle=orthogonalEdgeStyle;rounded=0;orthogonalLoop=1;jettySize=auto;html=1;exitX=1;exitY=0.5;exitDx=0;exitDy=0;startArrow=none;startFill=0;endArrow=classic;endFill=1;startSize=6;endSize=6;sourcePerimeterSpacing=8;targetPerimeterSpacing=8;" edge="1" parent="1" source="uKYQwsBpo09rn7Zrfnwy-47" target="uKYQwsBpo09rn7Zrfnwy-68">
          <mxGeometry relative="1" as="geometry" />
        </mxCell>
        <mxCell id="uKYQwsBpo09rn7Zrfnwy-75" value="Text" style="text;html=1;strokeColor=none;fillColor=none;align=center;verticalAlign=middle;whiteSpace=wrap;rounded=0;hachureGap=4;pointerEvents=0;" vertex="1" parent="1">
          <mxGeometry x="720" y="219" width="40" height="20" as="geometry" />
        </mxCell>
        <mxCell id="uKYQwsBpo09rn7Zrfnwy-76" value="&lt;h1&gt;Attaching These Score Cards to students&lt;/h1&gt;&lt;div&gt;While creating the score cards for the different encounters is the easy part, we need to figure out a way--database-wise and website-wise--to connect the students to these encounters.&amp;nbsp;&lt;/div&gt;" style="text;html=1;strokeColor=#d6b656;fillColor=#fff2cc;spacing=5;spacingTop=-20;whiteSpace=wrap;overflow=hidden;rounded=0;hachureGap=4;pointerEvents=0;" vertex="1" parent="1">
          <mxGeometry x="139" y="303" width="600" height="120" as="geometry" />
        </mxCell>
        <mxCell id="uKYQwsBpo09rn7Zrfnwy-77" value="ClinicalPassportUsers" style="shape=table;startSize=30;container=1;collapsible=1;childLayout=tableLayout;fixedRows=1;rowLines=0;fontStyle=1;align=center;resizeLast=1;hachureGap=4;pointerEvents=0;fillColor=#008a00;strokeColor=#005700;fontColor=#ffffff;" vertex="1" parent="1">
          <mxGeometry x="125" y="472" width="223" height="130" as="geometry" />
        </mxCell>
        <mxCell id="uKYQwsBpo09rn7Zrfnwy-78" value="" style="shape=partialRectangle;collapsible=0;dropTarget=0;pointerEvents=0;fillColor=none;top=0;left=0;bottom=1;right=0;points=[[0,0.5],[1,0.5]];portConstraint=eastwest;" vertex="1" parent="uKYQwsBpo09rn7Zrfnwy-77">
          <mxGeometry y="30" width="223" height="30" as="geometry" />
        </mxCell>
        <mxCell id="uKYQwsBpo09rn7Zrfnwy-79" value="PK" style="shape=partialRectangle;connectable=0;fillColor=none;top=0;left=0;bottom=0;right=0;fontStyle=1;overflow=hidden;" vertex="1" parent="uKYQwsBpo09rn7Zrfnwy-78">
          <mxGeometry width="30" height="30" as="geometry">
            <mxRectangle width="30" height="30" as="alternateBounds" />
          </mxGeometry>
        </mxCell>
        <mxCell id="uKYQwsBpo09rn7Zrfnwy-80" value="UserID VARCHAR(8)" style="shape=partialRectangle;connectable=0;fillColor=none;top=0;left=0;bottom=0;right=0;align=left;spacingLeft=6;fontStyle=5;overflow=hidden;" vertex="1" parent="uKYQwsBpo09rn7Zrfnwy-78">
          <mxGeometry x="30" width="193" height="30" as="geometry">
            <mxRectangle width="193" height="30" as="alternateBounds" />
          </mxGeometry>
        </mxCell>
        <mxCell id="uKYQwsBpo09rn7Zrfnwy-81" value="" style="shape=partialRectangle;collapsible=0;dropTarget=0;pointerEvents=0;fillColor=none;top=0;left=0;bottom=0;right=0;points=[[0,0.5],[1,0.5]];portConstraint=eastwest;" vertex="1" parent="uKYQwsBpo09rn7Zrfnwy-77">
          <mxGeometry y="60" width="223" height="30" as="geometry" />
        </mxCell>
        <mxCell id="uKYQwsBpo09rn7Zrfnwy-82" value="" style="shape=partialRectangle;connectable=0;fillColor=none;top=0;left=0;bottom=0;right=0;editable=1;overflow=hidden;" vertex="1" parent="uKYQwsBpo09rn7Zrfnwy-81">
          <mxGeometry width="30" height="30" as="geometry">
            <mxRectangle width="30" height="30" as="alternateBounds" />
          </mxGeometry>
        </mxCell>
        <mxCell id="uKYQwsBpo09rn7Zrfnwy-83" value="UserTypeID INT" style="shape=partialRectangle;connectable=0;fillColor=none;top=0;left=0;bottom=0;right=0;align=left;spacingLeft=6;overflow=hidden;" vertex="1" parent="uKYQwsBpo09rn7Zrfnwy-81">
          <mxGeometry x="30" width="193" height="30" as="geometry">
            <mxRectangle width="193" height="30" as="alternateBounds" />
          </mxGeometry>
        </mxCell>
        <mxCell id="uKYQwsBpo09rn7Zrfnwy-84" value="" style="shape=partialRectangle;collapsible=0;dropTarget=0;pointerEvents=0;fillColor=none;top=0;left=0;bottom=0;right=0;points=[[0,0.5],[1,0.5]];portConstraint=eastwest;" vertex="1" parent="uKYQwsBpo09rn7Zrfnwy-77">
          <mxGeometry y="90" width="223" height="30" as="geometry" />
        </mxCell>
        <mxCell id="uKYQwsBpo09rn7Zrfnwy-85" value="" style="shape=partialRectangle;connectable=0;fillColor=none;top=0;left=0;bottom=0;right=0;editable=1;overflow=hidden;" vertex="1" parent="uKYQwsBpo09rn7Zrfnwy-84">
          <mxGeometry width="30" height="30" as="geometry">
            <mxRectangle width="30" height="30" as="alternateBounds" />
          </mxGeometry>
        </mxCell>
        <mxCell id="uKYQwsBpo09rn7Zrfnwy-86" value="UserType VARCHAR(20)" style="shape=partialRectangle;connectable=0;fillColor=none;top=0;left=0;bottom=0;right=0;align=left;spacingLeft=6;overflow=hidden;" vertex="1" parent="uKYQwsBpo09rn7Zrfnwy-84">
          <mxGeometry x="30" width="193" height="30" as="geometry">
            <mxRectangle width="193" height="30" as="alternateBounds" />
          </mxGeometry>
        </mxCell>
        <mxCell id="uKYQwsBpo09rn7Zrfnwy-87" value="&lt;h1&gt;Users&lt;/h1&gt;&lt;div&gt;Students&lt;/div&gt;&lt;div&gt;Professors / Faculty&lt;/div&gt;&lt;div&gt;Academic Advisor&lt;/div&gt;&lt;div&gt;Director of Clinical Education&lt;/div&gt;" style="text;html=1;strokeColor=#005700;fillColor=#008a00;spacing=5;spacingTop=-20;whiteSpace=wrap;overflow=hidden;rounded=0;hachureGap=4;pointerEvents=0;fontColor=#ffffff;" vertex="1" parent="1">
          <mxGeometry x="383" y="472" width="353" height="131" as="geometry" />
        </mxCell>
        <mxCell id="uKYQwsBpo09rn7Zrfnwy-88" value="&lt;h1&gt;Scores&lt;/h1&gt;&lt;div&gt;1 - Poor Performance&lt;/div&gt;&lt;div&gt;2 - Below Average&lt;/div&gt;&lt;div&gt;3 - Appropriate&lt;/div&gt;&lt;div&gt;4 - Above Average&lt;/div&gt;&lt;div&gt;5 - Outstanding&lt;/div&gt;&lt;div&gt;&lt;br&gt;&lt;/div&gt;" style="text;html=1;strokeColor=#82b366;fillColor=#d5e8d4;spacing=5;spacingTop=-20;whiteSpace=wrap;overflow=hidden;rounded=0;hachureGap=4;pointerEvents=0;" vertex="1" parent="1">
          <mxGeometry x="497" y="-268" width="254" height="157" as="geometry" />
        </mxCell>
        <mxCell id="uKYQwsBpo09rn7Zrfnwy-89" value="&lt;h1&gt;Documentation Checklist&lt;/h1&gt;" style="text;html=1;strokeColor=#6c8ebf;fillColor=#dae8fc;spacing=5;spacingTop=-20;whiteSpace=wrap;overflow=hidden;rounded=0;hachureGap=4;pointerEvents=0;" vertex="1" parent="1">
          <mxGeometry x="118" y="-414" width="307" height="35" as="geometry" />
        </mxCell>
        <mxCell id="uKYQwsBpo09rn7Zrfnwy-90" value="&lt;h1&gt;Procedural Encounters&lt;/h1&gt;" style="text;html=1;strokeColor=#82b366;fillColor=#d5e8d4;spacing=5;spacingTop=-20;whiteSpace=wrap;overflow=hidden;rounded=0;hachureGap=4;pointerEvents=0;" vertex="1" parent="1">
          <mxGeometry x="483.5" y="-414" width="281" height="34" as="geometry" />
        </mxCell>
        <mxCell id="uKYQwsBpo09rn7Zrfnwy-91" value="&lt;h1&gt;Health and Preventive Screening Encounters&lt;/h1&gt;" style="text;html=1;strokeColor=#d79b00;fillColor=#ffe6cc;spacing=5;spacingTop=-20;whiteSpace=wrap;overflow=hidden;rounded=0;hachureGap=4;pointerEvents=0;" vertex="1" parent="1">
          <mxGeometry x="863" y="-414" width="325" height="64" as="geometry" />
        </mxCell>
      </root>
    </mxGraphModel>
  </diagram>
</mxfile>
